<svg xmlns="http://www.w3.org/2000/svg" width="143.936" height="149.328"><path d="M165.21 174.883c0-41.236 32.22-74.664 71.968-74.664 39.746 0 71.968 33.428 71.968 74.664 0 41.235-32.222 74.664-71.968 74.664-39.747 0-71.968-33.429-71.968-74.664zm75.868-14.9s-.209 72.839-.096 72.833a53.766 53.766 0 0 0 1.934-.14c.58-.052.004-51.956.004-51.956l14.653-.251s.4 48.595.98 48.354a54.837 54.837 0 0 0 14.523-8.903c.544-.463-5.115-.343-5.115-.343l-.067-4.065s9.75.06 9.862-.061a56.912 56.912 0 0 0 1.586-1.77c.286-.334-18.953-.079-18.953-.079l-.154-4.362s22.385.242 22.472.12c.255-.363.507-.729.754-1.098.219-.326-10.068-.171-10.068-.171l-.029-4.031s12.604.105 12.688-.047a58.013 58.013 0 0 0 2.782-5.77c.133-.32-24.301-.148-24.301-.148l.12-4.14 25.732.112.585-1.77-11.525.012.192-4.264 12.392-.07.247-.873-22.34-.157.026-4.375 22.942.129s.426-4.726.426-7.146c0-31.67-24.746-57.343-55.272-57.343-29.09 0-52.932 23.316-55.11 52.917-.045.618 28.736-33.536 28.736-33.536s-.786-2.902.874-4.992c1.71-2.152 5.151-3.27 8.12-.562 2.438 2.225 1.37 5.448 1.37 5.448l40.218 28.28s1.214-.76 1.886-.933c.398-.103 1.77-.012 1.77-.012l15.319-25.631 3.376 4.109-15.373 23.29s1.41 1.83.958 4.624c-.424 2.623-2.759 3.243-2.759 3.243s-3.297.731-5.075-.835c-3.043-2.68-1.851-5.088-1.851-5.088L220.56 139.29s-1.847 1.294-2.785 1.389c-1.252.126-4.062-.697-4.062-.697s-30.92 36.615-30.907 37.135c.336 13.005 4.845 24.93 12.189 34.385.344.444.847-37.245.847-37.245l28.594-.133s.135 57.052.34 57.104c.657.168.671.324 1.337.468.44.095.328-59.397.328-59.397l-17.614-.14.086-11.927z" transform="translate(-165.21 -100.219)" data-paper-data="{&quot;isPaintingLayer&quot;:true}" fill="#1cc657" stroke-width="0" stroke-miterlimit="10" style="mix-blend-mode:normal"/></svg>