<svg xmlns="http://www.w3.org/2000/svg" width="143.936" height="149.328"><g data-paper-data="{&quot;isPaintingLayer&quot;:true}" fill="#1cc657" stroke-width="0" stroke-miterlimit="10" style="mix-blend-mode:normal"><path d="M0 74.664C0 33.428 32.221 0 71.968 0c39.747 0 71.968 33.428 71.968 74.664 0 41.235-32.221 74.664-71.968 74.664C32.22 149.328 0 115.899 0 74.664zm66.243 35.797s4.835-5.187 11.433-.11c.193.148 15.527-13.558 15.527-13.558s-1.2-3.297-.827-6.39c.46-3.806 2.888-5.24 3.367-5.488 7.808-4.721 11.453-.118 11.453-.118l15.475-13.213s-1.427-1.052-1.224-5.477c.122-2.645 1.702-4.708 2.062-5.147-.498.04-1.788.083-4.856.11-2.979.028-5.324-2.94-5.324-2.94s-4.942 2.683-8.118 1.71c-7.585-2.325-5.578-7.432-5.578-7.432s-11.7 2.452-14.477.35c-4.068-3.079 1.384-10.24 1.384-10.24s-10.279 2.551-13.384-.608c-6.999-7.118 2.183-16.006 2.183-16.006s-4.731-.078-7.003-.078c-5.473 0-6.932-6.686-7.607-6.533-10.663 2.417-20.174 7.814-27.557 15.603-.433.456 12.43 3.272 12.43 3.272l9.194 6.007 6.096 10.774 2.018 10.657L61.272 81.1c-.28 2.648 1.781 6.733 1.55 8.924-.106.998-2.538.426-2.622 1.221l-1.665 15.76s-8.35-.656-12.533-3.544c-9.796-6.764-11.391-10.102-11.706-10.145-11.544-1.57-16.145-7.99-15.725-5.983.7 3.34 1.68 6.572 2.914 9.667.007.019-.138-5.98-.138-5.98l12.378 5.421 6.44 7.092 2.135 14.599 4.556 4.902s1.95 3.85 2.523 4.126c1.973.948 4.365 1.957 6.456 2.662.058.02 8.607-7.545 8.607-7.545s-1.725-2.618-1.399-5.958c.423-4.323 3.192-5.861 3.192-5.861l.039.046-.031-.044zm33.835-8.804c-1.555-.192-4.536-2.083-4.536-2.083s-15.863 12.942-15.704 13.243c1.296 2.45.987 5.419.987 5.419s19.1 1.809 19.165 1.473c.374-1.91 1.25-4.198 3.274-5.443 4.876-2.997 8.97-1.572 10.485-.833a57.868 57.868 0 0 0 9.504-15.36c-5.649-.462-13.932-1.113-14.034-.974-1.052 1.953-4.036 3.787-4.036 3.787l-.059-.106c-.401.125-3.506 1.068-5.046.877zM124.82 73.89l-15.849 13.428s1.065 2.228 1.25 3.486c.15 1.018-.02 3.496-.02 3.496l14.106 1.079c2.18-6 3.42-12.475 3.538-19.225-.765-.187-3.025-2.264-3.025-2.264zm-52.238 58.554c9.957 0 19.3-2.732 27.368-7.512.253-.15-.223-2.02-.223-2.02l-19.52-1.68-1.454-.339 1.445.449s-.477 4.413-6.157 5.412c-5.03.885-7.82-1.935-7.82-1.935s-7.167 5.896-6.811 5.986a53.506 53.506 0 0 0 13.172 1.639zM30.413 72.745l8.38-4.564.091-10.356-8.47-5.08-8.508 5.408-.192 9.528zM96.35 87.429s-3.9 2.893-.72 8.57c3.402 6.069 8.213 2.539 8.53 3.05.033.05.064.1.094.149l-.166-.3s4.098-1.464 3.975-7.225c-.126-5.896-4.37-6.392-6.111-6.585-2.857-.317-5.291 1.746-5.657 2.073zm-20.037 24.595c-4.198-3.064-7.94-.468-8.68.11l.086.102s-2.167 1.037-2.377 4.293c-.045.686-.249 6.619 4.495 7.87 6.126 1.617 8.605-3.604 8.605-3.604l.049.015c.146-.351 2.224-5.573-2.178-8.786zm29.184 3.763c-5.192 3.58-3.502 7.957-3.46 7.93a55.72 55.72 0 0 0 9.959-8.342c-1.06-.573-3.642-1.558-6.499.412zm20.84-54.083s-2.94 1.105-2.62 6.332c.21 3.413 3.426 5.38 4.103 5.758-.222-4.785-1.483-12.09-1.483-12.09zM46.067 75.46l4.74-.06 4.04-3.641-6.603 1.378-5.878-1.62z"/><path d="M69.154 73.9c-2.772 0-5.02-1.358-5.02-3.032 0-1.675 2.248-3.033 5.02-3.033 2.772 0 5.019 1.358 5.019 3.033 0 1.674-2.247 3.032-5.02 3.032zM84.354 77.39c-3.607 0-6.53-1.88-6.53-4.198 0-2.319 2.923-4.198 6.53-4.198 3.606 0 6.53 1.88 6.53 4.198 0 2.318-2.924 4.197-6.53 4.197zM98.044 72.255c-5.13 0-9.29-2.674-9.29-5.972 0-3.299 4.16-5.973 9.29-5.973 5.131 0 9.29 2.674 9.29 5.973 0 3.298-4.159 5.972-9.29 5.972zM36.151 63.173c0-3.139-2.599-5.683-5.804-5.683-3.206 0-5.805 2.544-5.805 5.683 0 3.14 2.6 5.684 5.805 5.684 3.205 0 5.804-2.545 5.804-5.684z"/></g></svg>